# xmcd
#
# Track frame offsets:
#	150
#	14882
#	28640
#	43227
#	59587
#	91347
#	107100
#	126290
#	146270
#
# Disc length: 2189 seconds
#
# Revision: 5
# Processed by: cddbd v1.5.2PL0 Copyright (c) Steve Scherf et al.
# Submitted via: audiograbber 1.83.01
#
DISCID=81088b09
DTITLE=Taj Mahal - The Natch'l Blues
DYEAR=1968
DGENRE=Blues
TTITLE0=Good Morning Miss Brown
TTITLE1=Corrina
TTITLE2=I Ain't Gonna Let Nobody Steal My Jellyroll
TTITLE3=Going Up To The Country, Paint My Mailbox Blue
TTITLE4=Done Changed My Way Of Living
TTITLE5=She Caught The Katy And Left Me A Mule To Ride
TTITLE6=The Cuckoo
TTITLE7=You Don't Miss Your Water ('Til Your Well Runs Dry)
TTITLE8=A Lot Of Love
EXTD=
EXTT0=
EXTT1=
EXTT2=
EXTT3=
EXTT4=
EXTT5=
EXTT6=
EXTT7=
EXTT8=
PLAYORDER=
